<?xml version="1.0" standalone="no"?>
<!DOCTYPE svg PUBLIC "-//W3C//DTD SVG 20010904//EN"
 "http://www.w3.org/TR/2001/REC-SVG-20010904/DTD/svg10.dtd">
<svg version="1.0" xmlns="http://www.w3.org/2000/svg"
 width="2465.000000pt" height="2503.000000pt" viewBox="0 0 2465.000000 2503.000000"
 preserveAspectRatio="xMidYMid meet">

<g transform="translate(0.000000,2503.000000) scale(0.100000,-0.100000)"
fill="#000000" stroke="none">
<path d="M11797 24093 c-6 -10 -41 -1132 -36 -1137 2 -2 139 -7 305 -11 l301
-7 6 113 c3 63 4 115 3 116 -1 1 -79 5 -174 9 l-172 7 0 71 c0 39 3 94 6 121
l6 51 159 -4 159 -4 0 114 0 115 -157 7 c-87 4 -158 8 -158 9 -1 1 1 46 3 101
l4 98 171 -3 172 -4 3 111 3 112 -228 6 c-125 3 -260 9 -300 11 -39 3 -74 2
-76 -2z"/>
<path d="M11008 24081 c-75 -3 -139 -9 -142 -12 -7 -6 39 -1127 46 -1134 3 -3
62 -2 132 2 l128 6 -6 126 c-4 69 -9 172 -12 229 l-6 102 45 0 c113 0 127 -24
138 -228 5 -86 13 -170 17 -187 l9 -30 149 4 c82 1 150 4 151 5 1 1 -9 24 -22
51 -20 39 -28 82 -40 199 -17 170 -40 235 -98 282 l-36 28 44 47 c58 62 80
133 72 242 -9 130 -70 225 -165 256 -47 15 -227 21 -404 12z m254 -212 c43
-23 64 -141 35 -199 -16 -32 -71 -60 -118 -60 l-36 0 -7 132 c-5 101 -3 134 6
140 15 10 94 1 120 -13z"/>
<path d="M12620 24043 c0 -10 -25 -263 -56 -561 -30 -299 -53 -546 -50 -549 6
-7 137 -22 192 -23 l40 0 14 138 c7 75 18 226 24 335 l11 197 63 -332 c35
-183 66 -340 68 -349 3 -12 33 -18 140 -28 74 -7 136 -12 138 -10 6 9 116
1123 110 1128 -6 7 -216 30 -225 25 -9 -5 -30 -230 -43 -463 l-11 -204 -69
345 -68 345 -107 12 c-148 16 -171 15 -171 -6z"/>
<path d="M10323 24016 c-150 -18 -275 -35 -278 -38 -7 -7 119 -1115 127 -1123
8 -8 581 56 592 66 8 7 -10 218 -19 227 -3 4 -245 -23 -311 -33 l-32 -5 -12
115 c-7 64 -9 119 -6 123 4 3 72 14 152 23 80 9 148 19 151 23 3 3 0 56 -7
117 l-13 111 -36 -5 c-94 -14 -272 -29 -277 -24 -8 8 -29 185 -23 191 3 3 75
13 161 22 87 10 162 20 167 23 6 4 6 45 -2 114 -11 106 -11 107 -36 106 -14
-1 -149 -16 -298 -33z"/>
<path d="M9525 23893 c-159 -30 -290 -55 -292 -56 -1 -1 45 -252 101 -556 65
-352 107 -556 115 -559 10 -3 251 37 251 42 0 0 -20 107 -44 236 -24 129 -43
236 -42 237 0 0 66 13 146 27 80 15 150 28 156 30 8 3 5 37 -9 113 -11 59 -21
110 -23 112 -2 2 -71 -9 -154 -24 -83 -15 -154 -25 -157 -22 -6 7 -33 145 -33
173 0 19 13 23 161 50 89 15 163 33 165 39 7 17 -31 208 -41 211 -6 1 -140
-23 -300 -53z"/>
<path d="M13737 23920 c-88 -22 -165 -85 -206 -168 -74 -148 -155 -659 -122
-778 39 -144 184 -236 376 -238 54 -1 106 5 130 13 58 21 138 101 169 171 27
60 64 206 54 215 -6 7 -206 45 -233 45 -17 0 -22 -11 -33 -67 -25 -132 -70
-179 -146 -152 -34 12 -43 21 -53 52 -17 50 -4 171 43 406 36 184 60 253 92
270 33 18 86 13 110 -9 29 -27 36 -59 29 -136 -5 -74 -21 -63 138 -93 55 -11
103 -16 108 -12 4 4 10 43 14 88 15 198 -67 325 -246 379 -61 18 -177 25 -224
14z"/>
<path d="M8955 23780 c-16 -5 -139 -37 -272 -71 -134 -34 -243 -67 -243 -73 0
-9 271 -1086 275 -1093 2 -3 248 59 254 63 2 2 -22 105 -53 230 -31 125 -53
230 -49 234 4 4 58 19 118 34 61 15 126 31 146 36 l35 10 -29 113 -29 113
-150 -39 c-83 -21 -154 -35 -158 -30 -8 9 -53 184 -48 188 2 1 73 19 158 40
85 21 159 41 163 45 7 6 1 37 -34 173 -11 40 -23 44 -84 27z"/>
<path d="M14492 23748 c-68 -256 -274 -1069 -271 -1072 2 -2 135 -37 294 -78
l290 -75 23 81 c12 45 24 96 25 115 l2 34 -157 41 c-86 23 -159 44 -163 47 -7
7 44 209 56 223 5 5 70 -7 154 -29 86 -23 149 -35 154 -29 5 5 19 55 33 110
l25 102 -146 38 c-80 20 -150 40 -154 44 -6 6 19 132 38 186 2 8 56 -2 171
-32 92 -24 169 -42 170 -41 6 8 55 210 51 213 -4 4 -570 154 -581 154 -3 0 -9
-15 -14 -32z"/>
<path d="M8083 23542 c-62 -20 -113 -40 -113 -45 0 -10 331 -1070 336 -1076 8
-9 255 73 251 83 -2 6 -57 180 -121 386 -199 637 -217 690 -229 689 -7 -1 -63
-17 -124 -37z"/>
<path d="M15306 23541 c-2 -3 -24 -69 -49 -146 -32 -98 -56 -205 -82 -353 -20
-118 -35 -221 -33 -229 3 -13 116 -58 125 -50 1 2 45 95 98 207 85 182 191
467 182 493 -4 12 -236 87 -241 78z"/>
<path d="M7535 23340 c-63 -13 -122 -33 -284 -95 l-150 -57 29 -77 c56 -153
372 -986 374 -988 7 -7 380 143 426 171 104 64 147 147 137 267 -10 117 -170
549 -243 656 -75 108 -167 148 -289 123z m29 -240 c14 -5 35 -24 46 -42 24
-39 108 -250 156 -392 40 -119 43 -165 12 -200 -25 -28 -94 -61 -101 -48 -20
31 -247 654 -242 662 6 10 58 28 87 29 9 1 28 -3 42 -9z"/>
<path d="M6238 22794 c-148 -74 -268 -137 -268 -140 0 -9 467 -941 492 -981
l19 -32 270 134 c148 74 269 137 269 140 0 10 -100 205 -105 205 -3 0 -72 -34
-154 -75 l-149 -74 -15 22 c-22 33 -99 189 -95 192 2 1 64 33 138 70 74 37
137 69 139 71 8 8 -93 204 -104 204 -6 0 -67 -29 -135 -65 -69 -35 -131 -65
-137 -65 -12 0 -93 148 -93 170 0 5 68 44 150 85 83 41 150 77 150 79 0 4
-101 196 -103 195 -1 0 -122 -61 -269 -135z"/>
<path d="M15009 22608 c-17 -57 -35 -112 -39 -124 -7 -19 2 -23 115 -61 l124
-41 36 117 c20 64 38 120 38 125 2 7 -213 86 -235 86 -4 0 -21 -46 -39 -102z"/>
<path d="M11270 22649 c-1165 -62 -2303 -309 -3343 -725 -1826 -732 -3357
-1894 -4483 -3404 -615 -824 -1159 -1852 -1512 -2856 -735 -2088 -784 -4428
-139 -6554 100 -328 221 -666 351 -978 l55 -133 -36 -57 c-144 -224 -202 -509
-159 -771 22 -129 41 -183 114 -329 33 -64 83 -175 112 -247 107 -264 238
-519 428 -835 58 -96 135 -240 172 -320 132 -288 308 -562 509 -790 42 -47
134 -148 206 -225 186 -200 702 -809 865 -1020 221 -287 551 -546 875 -687
152 -66 316 -92 438 -69 188 35 376 171 501 363 l55 84 89 -43 c101 -49 245
-89 359 -99 72 -6 89 -12 222 -81 79 -41 283 -142 455 -224 314 -152 630 -276
1096 -432 713 -239 1572 -416 2345 -481 492 -42 1237 -47 1680 -11 2093 166
4004 911 5635 2194 510 401 1029 898 1454 1391 943 1095 1658 2385 2076 3747
431 1399 567 2881 400 4320 -131 1123 -414 2138 -902 3236 -39 87 -66 162 -62
166 5 5 41 30 79 57 272 188 389 300 451 429 88 183 94 400 19 630 -95 289
-493 921 -870 1380 -208 254 -537 596 -784 814 -449 398 -954 737 -1506 1011
l-240 119 -723 210 c-575 167 -728 208 -745 200 -12 -6 -51 -51 -87 -100 -36
-50 -68 -93 -72 -95 -3 -2 -132 58 -285 134 -400 198 -713 333 -1098 472 -317
114 -716 235 -1027 311 -115 28 -137 36 -133 50 5 14 -22 21 -177 52 -526 105
-1036 168 -1578 197 -224 11 -852 11 -1080 -1z m5760 -1209 c166 -34 1177
-333 1280 -379 411 -184 952 -519 1350 -835 221 -176 540 -465 654 -592 l46
-52 0 -131 c0 -568 -207 -1083 -584 -1456 -243 -240 -544 -401 -880 -471 -210
-43 -289 -42 -1229 16 l-848 53 -162 -32 c-325 -63 -596 -87 -887 -77 -401 13
-753 75 -1126 197 l-150 50 -172 135 c-95 75 -172 139 -172 144 0 5 97 125
216 267 173 206 280 321 534 573 407 405 533 561 558 695 9 51 194 311 1162
1633 l215 294 50 -7 c28 -3 93 -15 145 -25z m-1845 -4188 c38 -5 -98 -11 -378
-16 -288 -6 -446 -5 -460 1 -18 9 -8 12 53 17 41 3 93 8 115 10 61 6 602 -4
670 -12z m4224 -462 c134 -39 342 -108 330 -109 -4 -1 -98 21 -210 48 -112 27
-242 57 -288 67 -58 13 -78 20 -65 25 40 16 102 8 233 -31z m511 -7 c152 -39
317 -109 454 -192 l63 -39 154 74 c189 92 184 82 -8 -19 l-143 -74 -117 58
c-65 32 -217 95 -338 140 -121 45 -222 83 -224 85 -7 6 56 -7 159 -33z m-1344
-2132 c16 -5 50 -12 77 -16 26 -3 47 -11 47 -17 0 -12 -149 -168 -161 -168 -8
0 -47 94 -55 136 -12 63 23 87 92 65z m-10446 -1846 c142 -21 220 -36 219 -44
-1 -8 -1412 -1271 -1534 -1372 -157 -130 -326 -282 -485 -434 -206 -198 -222
-212 -216 -195 3 8 28 100 56 205 50 188 51 189 32 215 -24 31 -72 38 -94 13
-9 -10 -91 -296 -183 -636 -91 -341 -175 -649 -187 -685 -38 -127 -93 -215
-204 -332 -121 -125 -213 -192 -362 -261 -130 -61 -115 -52 -196 -120 -36 -31
-88 -68 -116 -83 -57 -31 -161 -56 -237 -56 -65 0 -82 -7 -93 -36 -7 -18 -19
-24 -65 -29 -117 -15 -344 33 -399 83 -60 56 -90 170 -75 282 13 97 72 207
173 326 217 253 317 416 353 574 22 97 25 599 5 795 -13 123 -13 133 6 181 45
118 351 471 483 558 162 107 422 170 804 196 155 11 267 40 393 104 179 91
331 220 459 391 84 111 111 132 268 205 179 84 383 142 585 166 143 16 464 11
610 -11z m1710 -2360 c163 -43 330 -175 429 -340 38 -63 92 -212 116 -325 25
-114 30 -467 10 -710 -9 -107 -16 -215 -17 -240 0 -25 -11 -232 -24 -460 -41
-718 -48 -975 -36 -1187 17 -264 51 -459 113 -647 33 -97 143 -320 201 -404
69 -100 219 -256 312 -322 l73 -52 -10 -56 c-5 -32 -17 -66 -26 -76 -26 -30
-244 -131 -396 -182 l-140 -48 -273 -1 c-243 -2 -281 0 -334 16 -33 11 -84 19
-113 19 -44 0 -55 4 -68 24 -10 15 -30 26 -54 31 -107 19 -207 127 -220 237
-2 24 -9 55 -14 69 -7 18 -5 98 5 250 35 509 56 1092 56 1599 0 473 -17 610
-94 775 -43 92 -119 187 -170 214 -30 16 -35 35 -7 26 25 -8 68 10 75 32 5 16
96 657 96 677 0 4 33 -25 73 -66 93 -94 162 -130 267 -136 94 -5 161 20 216
80 85 94 102 196 85 493 -7 116 -17 222 -23 238 -18 47 -102 50 -114 3 -3 -13
-1 -89 5 -169 14 -182 14 -341 1 -388 -25 -88 -81 -134 -161 -132 -84 2 -163
56 -249 173 -28 38 -56 70 -63 73 -20 6 66 609 104 725 27 83 98 178 141 191
50 14 167 12 228 -4z m653 -392 c40 -32 74 -59 76 -60 2 -2 1 -6 -3 -10 -3 -4
-20 1 -35 10 -16 9 -39 16 -51 15 -18 -3 -26 7 -45 50 -13 28 -22 52 -19 52 3
0 37 -26 77 -57z m602 -92 c120 -55 242 -200 304 -360 17 -44 52 -151 77 -238
61 -209 114 -344 169 -427 l45 -69 0 -513 0 -514 -25 -16 c-19 -12 -25 -25
-25 -50 0 -24 8 -41 25 -56 23 -20 25 -29 25 -103 0 -86 10 -108 55 -117 25
-4 33 -35 34 -127 1 -82 16 -111 58 -111 46 0 61 17 68 74 13 101 -33 276 -83
312 -30 22 -5 26 35 5 156 -79 287 -254 413 -551 51 -120 72 -158 93 -170 24
-13 28 -13 54 6 15 12 30 29 31 38 9 42 -143 371 -233 506 -95 143 -227 260
-350 310 l-55 22 0 594 c0 363 4 594 9 594 6 0 45 26 88 58 43 32 108 72 145
89 77 36 155 88 260 172 74 59 320 190 476 252 114 46 303 109 327 109 12 0
27 6 33 12 8 8 39 12 90 10 152 -5 627 -33 650 -38 22 -4 23 -8 17 -47 -13
-86 -384 -1152 -613 -1762 -144 -385 -171 -449 -274 -658 -215 -436 -520 -941
-675 -1119 -149 -171 -323 -274 -531 -314 -137 -26 -361 -13 -562 32 -121 28
-248 112 -385 255 -238 249 -375 595 -416 1051 -15 170 -7 615 20 1078 12 190
24 396 27 458 l7 112 66 0 c191 0 361 103 439 267 37 78 37 78 37 208 0 111
-4 138 -23 185 -26 66 -87 149 -124 170 -25 13 -29 13 -55 -6 -40 -30 -40 -62
-2 -110 61 -76 84 -139 84 -239 0 -77 -4 -98 -26 -146 -57 -122 -163 -190
-307 -197 l-84 -5 6 74 c25 294 25 647 0 822 -6 44 -5 47 15 47 12 0 40 13 62
30 52 37 128 66 199 75 78 9 86 12 98 39 19 43 109 41 207 -3z m-2203 -1391
c35 -10 72 -26 83 -34 23 -18 81 -21 90 -6 11 17 85 -50 127 -114 47 -73 83
-183 97 -301 6 -52 11 -263 11 -500 0 -698 -30 -1365 -90 -2049 -20 -215 -20
-230 -4 -247 42 -47 114 -1 115 73 0 24 3 60 7 81 l7 37 44 -45 c23 -24 67
-56 96 -70 l53 -26 -44 -41 c-59 -54 -98 -139 -129 -281 -37 -165 -96 -331
-168 -472 -52 -101 -75 -133 -142 -201 -106 -108 -145 -122 -375 -134 -178
-10 -536 7 -548 27 -13 19 -51 33 -89 33 -91 0 -210 97 -263 215 -43 94 -65
177 -95 350 -14 88 -35 178 -46 201 -15 31 -19 62 -19 140 0 203 32 581 81
969 51 397 182 1171 254 1493 103 457 246 701 495 840 131 73 328 100 452 62z
m-913 -392 c-37 -74 -44 -83 -35 -45 6 26 54 107 62 107 3 0 -10 -28 -27 -62z
m5516 -168 c-61 -177 -164 -449 -182 -480 -18 -32 -16 -25 67 195 37 99 87
235 110 303 24 67 45 121 47 119 2 -2 -17 -64 -42 -137z m-204 -537 c-12 -20
-14 -14 -5 12 4 9 9 14 11 11 3 -2 0 -13 -6 -23z m-25 -60 c-8 -15 -15 -25
-16 -21 0 12 23 58 27 54 3 -2 -2 -17 -11 -33z m-35 -80 c-12 -20 -14 -14 -5
12 4 9 9 14 11 11 3 -2 0 -13 -6 -23z m-1981 -1672 c50 -8 53 -6 -50 -30 -19
-5 -43 -12 -52 -16 -15 -6 -18 -1 -18 30 l0 38 38 -8 c20 -4 57 -10 82 -14z
m-3720 -912 c39 -38 47 -53 67 -132 43 -172 134 -309 255 -388 57 -36 57 -37
37 -55 -37 -34 -77 -136 -97 -252 -12 -62 -26 -120 -33 -128 -7 -8 -23 -38
-36 -66 -73 -158 -287 -365 -541 -524 -108 -68 -179 -95 -272 -101 -132 -9
-344 44 -509 127 -89 44 -226 129 -219 135 2 2 44 -2 93 -10 132 -22 314 -20
409 5 114 29 210 83 289 162 52 53 67 74 67 97 0 38 -23 61 -62 61 -25 0 -41
-11 -84 -58 -99 -110 -224 -156 -419 -155 -130 1 -351 34 -372 56 -19 19 -79
172 -102 260 -64 245 -49 519 36 697 57 117 194 216 363 261 116 32 318 32
433 1 161 -44 295 -146 351 -267 53 -116 48 -110 91 -110 32 0 42 5 54 26 12
22 12 32 -4 83 -21 68 -76 155 -130 209 -21 20 -36 39 -34 41 2 2 74 40 159
85 l155 80 5 -48 c5 -41 12 -55 50 -92z m576 -635 c-43 -8 -92 -22 -108 -30
-39 -20 -26 1 16 27 23 14 48 19 101 18 l70 -1 -79 -14z m-418 -681 c-49 -71
-204 -223 -277 -272 -66 -45 -209 -116 -217 -108 -3 3 20 18 50 35 93 53 297
213 386 303 47 48 86 87 88 88 2 0 -12 -20 -30 -46z"/>
<path d="M6017 11887 c-15 -10 -16 -15 -5 -30 12 -15 16 -16 32 -4 12 9 17 20
13 31 -8 19 -17 20 -40 3z"/>
<path d="M8902 8068 c-8 -8 -12 -46 -12 -103 0 -177 -36 -366 -100 -519 -36
-86 -59 -110 -104 -110 -41 0 -215 83 -272 130 -73 59 -103 154 -69 214 48 84
-37 153 -98 80 -72 -84 -51 -246 44 -355 69 -79 276 -182 382 -191 52 -5 69
-2 107 18 123 63 216 328 227 644 6 188 2 204 -55 204 -21 0 -43 -5 -50 -12z"/>
<path d="M5643 22472 c-50 -31 -95 -60 -99 -64 -4 -4 42 -89 101 -188 59 -99
106 -182 104 -184 -2 -2 -42 -27 -88 -54 l-84 -51 -109 180 c-60 98 -113 179
-118 179 -7 0 -191 -106 -218 -125 -5 -4 578 -970 587 -973 6 -2 194 104 220
124 2 2 -51 95 -117 206 l-121 202 42 26 c23 15 63 39 89 54 l46 27 113 -188
c61 -103 117 -194 124 -201 9 -11 32 -1 118 50 59 35 107 65 107 68 1 17 -579
965 -591 967 -8 1 -55 -24 -106 -55z"/>
<path d="M4705 21875 c-153 -108 -281 -197 -283 -199 -2 -2 26 -45 61 -95 l64
-91 85 60 85 59 263 -375 c144 -206 266 -373 269 -372 33 15 210 145 207 153
-2 6 -117 172 -256 369 -139 198 -254 365 -256 371 -3 6 34 38 81 70 51 35 84
64 81 72 -5 12 -116 173 -120 173 -1 0 -127 -88 -281 -195z"/>
<path d="M3750 21134 c-124 -107 -226 -198 -228 -202 -3 -11 724 -857 737
-857 5 0 111 87 235 194 l226 194 -39 46 c-21 25 -56 65 -77 89 l-39 42 -128
-111 c-124 -107 -129 -110 -148 -93 -28 25 -134 154 -134 163 0 4 51 51 113
105 76 66 111 103 108 113 -7 17 -128 161 -137 162 -3 1 -58 -44 -122 -99 -63
-55 -117 -100 -120 -100 -3 0 -35 34 -71 76 l-64 76 116 100 c64 56 123 107
131 114 11 10 2 26 -59 98 -41 47 -74 86 -74 86 -1 -1 -102 -89 -226 -196z"/>
<path d="M3312 20747 l-92 -92 90 -225 c49 -123 90 -227 90 -230 -1 -3 -72 69
-159 159 l-158 164 -93 -90 c-72 -69 -91 -93 -84 -105 5 -8 185 -194 399 -411
l391 -397 91 93 92 92 -104 110 c-78 83 -108 122 -121 158 -9 27 -14 50 -12
52 2 2 87 -39 189 -90 l186 -94 99 94 c65 61 96 96 89 103 -5 5 -143 69 -305
142 -162 72 -300 137 -306 143 -7 7 -49 126 -95 265 -46 138 -86 252 -89 252
-3 0 -47 -42 -98 -93z"/>
<path d="M2523 19930 c-54 -61 -98 -118 -98 -126 0 -16 673 -935 683 -933 8 1
172 185 172 192 0 3 -29 40 -65 83 -36 43 -65 83 -65 89 1 5 29 41 64 80 l64
69 86 -57 c47 -31 90 -57 94 -57 9 0 164 173 170 189 1 4 -210 129 -470 276
-260 148 -487 277 -505 287 l-31 19 -99 -111z m390 -306 l187 -122 -49 -54
c-27 -29 -51 -51 -53 -48 -2 3 -64 77 -138 165 -182 218 -168 200 -150 190 8
-5 99 -64 203 -131z"/>
<path d="M2030 19343 l-109 -148 28 -30 c15 -16 83 -93 151 -170 68 -77 169
-187 224 -244 71 -74 91 -98 66 -84 -75 44 -196 110 -210 115 -8 4 -106 49
-218 102 l-202 95 -110 -147 c-83 -113 -106 -150 -97 -159 7 -6 212 -161 457
-343 l445 -330 17 22 c79 103 130 181 121 186 -43 27 -661 467 -659 469 1 2
169 -76 373 -172 205 -96 376 -175 382 -175 11 0 121 141 121 154 0 4 -115
137 -257 294 -141 158 -268 300 -282 316 l-26 30 40 -31 c22 -16 166 -129 320
-249 154 -121 285 -223 291 -227 11 -6 154 172 154 190 0 5 -62 53 -138 109
-75 55 -280 207 -455 337 l-317 237 -110 -147z"/>
</g>
</svg>
